<?xml version="1.0" standalone="no"?>
<!DOCTYPE svg PUBLIC "-//W3C//DTD SVG 20010904//EN"
 "http://www.w3.org/TR/2001/REC-SVG-20010904/DTD/svg10.dtd">
<svg version="1.0" xmlns="http://www.w3.org/2000/svg"
 width="1070.000000pt" height="238.000000pt" viewBox="0 0 1070.000000 238.000000"
 preserveAspectRatio="xMidYMid meet">

<g transform="translate(0.000000,238.000000) scale(0.100000,-0.100000)"
fill="#000000" stroke="none">
<path d="M2522 2009 c-53 -20 -53 -18 -50 -833 l3 -754 24 -26 c31 -33 55 -33
86 -1 l25 24 0 773 c-1 592 -3 777 -13 789 -20 26 -50 37 -75 28z"/>
<path d="M1015 1807 l-350 -203 -3 -411 -2 -411 350 -202 c192 -111 356 -200
364 -198 7 2 169 93 360 203 l346 200 -2 409 -3 410 -350 203 c-192 111 -352
202 -355 202 -3 0 -162 -91 -355 -202z m645 -124 l275 -159 3 -331 2 -330
-280 -161 c-154 -89 -284 -162 -290 -162 -6 0 -137 73 -290 161 l-280 162 0
331 0 331 283 162 c155 90 287 161 292 159 6 -2 134 -76 285 -163z"/>
<path d="M1110 1642 l-255 -148 -3 -301 -2 -300 255 -147 c140 -81 261 -146
268 -144 8 2 127 68 266 148 l251 145 -2 299 -3 300 -255 147 c-140 82 -257
148 -260 148 -3 0 -120 -66 -260 -147z m450 -120 l185 -107 3 -222 2 -221
-183 -106 c-101 -58 -190 -106 -197 -106 -7 0 -96 48 -197 106 l-183 106 0
221 0 222 183 106 c100 59 187 107 192 108 6 0 93 -48 195 -107z"/>
<path d="M1203 1477 l-163 -92 3 -193 2 -193 161 -93 161 -94 167 96 166 97
-2 190 -3 190 -160 92 c-88 51 -162 93 -165 93 -3 0 -78 -42 -167 -93z m280
-124 l77 -45 0 -116 0 -117 -95 -53 c-52 -30 -98 -52 -103 -50 -4 1 -49 27
-100 56 l-92 54 0 111 0 112 98 57 c80 46 100 54 117 46 11 -6 55 -31 98 -55z"/>
<path d="M3429 1989 c-89 -52 -93 -206 -7 -259 43 -26 139 -27 187 -2 55 27
75 63 76 132 0 68 -21 104 -76 132 -48 25 -134 23 -180 -3z"/>
<path d="M5885 1837 l-130 -32 -5 -110 -5 -110 -47 -3 c-27 -2 -48 -7 -48 -12
0 -5 21 -10 48 -12 l47 -3 5 -315 c5 -313 5 -315 30 -359 39 -70 97 -95 230
-99 99 -3 108 -2 159 25 43 22 61 39 82 78 36 64 53 135 33 135 -8 0 -14 -10
-14 -22 0 -13 -9 -41 -19 -63 -48 -108 -165 -130 -191 -37 -6 22 -10 164 -10
350 l0 312 110 0 c67 0 110 4 110 10 0 6 -43 10 -110 10 l-110 0 0 145 c0 132
-2 145 -17 144 -10 0 -76 -15 -148 -32z"/>
<path d="M5466 1810 c-70 -21 -113 -103 -102 -196 5 -43 4 -55 -6 -50 -71 29
-128 38 -212 33 -154 -8 -244 -55 -292 -154 -68 -138 -10 -307 120 -354 20 -7
36 -16 36 -19 0 -4 -31 -27 -68 -53 -86 -59 -116 -108 -110 -178 4 -34 13 -58
29 -75 49 -53 70 -57 290 -65 271 -10 301 -22 301 -124 0 -116 -118 -183 -304
-173 -141 7 -197 62 -184 177 l7 57 -47 22 -46 23 -47 -23 c-122 -61 -94 -197
51 -248 72 -25 261 -43 363 -34 251 21 374 118 383 302 4 63 1 80 -23 127 -56
115 -135 144 -417 153 -226 8 -241 13 -187 64 l34 32 140 1 c123 1 146 4 187
23 108 51 158 128 158 242 0 81 -21 129 -83 192 -46 46 -47 48 -47 112 0 80
12 113 46 126 34 13 61 5 70 -22 6 -20 -10 -41 -39 -51 -21 -7 13 -65 45 -76
50 -18 78 -13 109 18 24 25 29 38 29 78 0 58 -19 90 -66 109 -37 16 -74 17
-118 4z m-256 -240 c34 -18 44 -76 44 -250 -1 -97 -5 -176 -12 -192 -28 -67
-100 -69 -127 -3 -18 41 -21 328 -5 387 16 56 58 80 100 58z"/>
<path d="M9912 1799 c-62 -31 -85 -81 -80 -171 3 -59 1 -68 -12 -62 -88 39
-246 42 -348 8 -70 -23 -134 -80 -162 -146 -18 -43 -22 -65 -18 -125 7 -102
41 -157 125 -198 34 -16 62 -32 62 -35 1 -3 -20 -18 -47 -35 -75 -48 -109 -83
-128 -130 -30 -79 1 -148 83 -182 41 -17 78 -21 238 -26 252 -7 295 -24 295
-118 0 -111 -106 -179 -278 -179 -86 0 -135 14 -175 50 -31 27 -32 31 -32 109
l0 80 -48 20 c-48 20 -49 20 -87 1 -52 -26 -80 -65 -80 -109 0 -117 132 -173
410 -174 211 -1 306 28 389 118 49 53 66 89 76 162 8 64 -14 148 -51 192 -69
82 -135 101 -391 109 -116 4 -196 11 -203 18 -14 14 -5 35 27 58 23 17 45 20
162 20 121 1 142 4 189 25 67 30 135 104 152 166 27 97 -8 209 -85 273 -33 27
-36 34 -41 98 -5 58 -2 74 15 101 11 18 32 35 46 39 49 12 75 -40 33 -68 -43
-29 7 -98 72 -98 76 0 123 88 88 164 -27 60 -123 82 -196 45z m-218 -252 c20
-27 21 -41 21 -220 0 -207 -5 -230 -52 -248 -30 -11 -65 7 -84 43 -17 32 -24
278 -10 352 19 102 78 136 125 73z"/>
<path d="M4339 1586 c-53 -19 -93 -50 -114 -90 -11 -20 -23 -36 -27 -36 -5 0
-8 27 -8 60 l0 60 -195 0 c-123 0 -195 -4 -195 -10 0 -5 20 -10 45 -10 l45 0
0 -570 0 -570 -45 0 c-33 0 -45 -4 -45 -15 0 -13 41 -15 305 -15 264 0 305 2
305 15 0 12 -18 15 -105 15 l-105 0 0 217 0 217 28 -26 c39 -38 73 -48 160
-48 119 0 195 30 255 101 44 51 64 106 79 221 13 99 1 225 -29 313 -24 71
-111 157 -175 173 -60 15 -133 15 -179 -2z m26 -68 c39 -35 48 -109 43 -368
-5 -234 -12 -279 -50 -312 -53 -46 -140 7 -153 93 -3 24 -5 141 -3 259 3 208
4 217 28 265 17 34 37 56 60 67 44 22 44 23 75 -4z"/>
<path d="M6640 1586 c-116 -26 -184 -71 -240 -158 -48 -73 -64 -149 -58 -275
6 -128 32 -196 101 -267 70 -71 138 -97 274 -104 276 -13 421 92 455 327 21
148 -14 306 -85 379 -92 97 -275 137 -447 98z m182 -36 c30 -36 38 -116 38
-371 0 -273 -7 -328 -48 -359 -28 -23 -79 -26 -104 -6 -44 33 -52 80 -56 314
-5 312 12 417 72 443 30 12 78 2 98 -21z"/>
<path d="M7766 1585 c-43 -15 -89 -54 -117 -100 l-19 -30 0 63 0 62 -195 0
c-115 0 -195 -4 -195 -9 0 -6 19 -11 43 -13 l42 -3 3 -567 2 -568 -50 0 c-38
0 -50 -4 -50 -15 0 -13 41 -15 310 -15 269 0 310 2 310 15 0 12 -19 15 -110
15 l-110 0 0 215 c0 118 3 215 8 215 4 0 12 -8 19 -18 21 -35 76 -52 165 -52
230 1 338 132 338 410 0 159 -45 289 -120 351 -65 54 -189 74 -274 44z m17
-56 c14 -6 30 -23 37 -38 30 -62 30 -530 0 -606 -28 -72 -89 -88 -140 -37 -45
46 -52 91 -48 331 3 213 3 217 31 272 19 39 37 62 60 73 39 19 31 18 60 5z"/>
<path d="M8765 1585 c-48 -19 -98 -65 -122 -114 l-18 -36 -3 73 -3 72 -199 0
c-127 0 -200 -4 -200 -10 0 -5 20 -10 45 -10 l45 0 0 -370 0 -370 -45 0 c-33
0 -45 -4 -45 -15 0 -13 33 -15 235 -15 202 0 235 2 235 15 0 11 -11 15 -36 15
l-35 0 3 278 c3 276 3 277 30 334 40 85 100 117 143 74 l25 -25 0 -331 0 -330
-30 0 c-20 0 -30 -5 -30 -15 0 -13 32 -15 230 -15 198 0 230 2 230 15 0 11
-12 15 -45 15 l-45 0 0 279 c0 249 -2 286 -20 343 -21 68 -50 103 -110 134
-48 24 -181 29 -235 9z"/>
<path d="M3260 1570 c0 -5 25 -10 55 -10 l56 0 -3 -537 c-3 -481 -5 -542 -20
-576 -10 -21 -28 -41 -41 -46 -47 -18 -107 13 -107 55 0 41 11 54 45 54 30 0
33 3 38 39 7 52 0 82 -27 116 -20 24 -32 29 -84 33 -50 4 -67 0 -95 -17 -83
-51 -88 -170 -11 -243 48 -45 99 -61 199 -61 171 -1 273 54 337 183 63 126 69
175 75 623 l6 397 -212 0 c-134 0 -211 -4 -211 -10z"/>
</g>
</svg>
